<svg width="26" height="26" viewBox="0 0 26 26" fill="none" xmlns="http://www.w3.org/2000/svg">
<path d="M13.6557 8.68848H12.6913L9.62793 15.7796H11.0462L11.5638 14.3614H14.7832L15.3008 15.7796H16.7191L13.6557 8.68848ZM11.968 13.2977L13.1735 10.1067L14.379 13.2977H11.968Z" fill="#7496B8"/>
<path fill-rule="evenodd" clip-rule="evenodd" d="M19.4917 6.47709C20.7583 7.74344 21.628 9.35177 21.9941 11.105C22.3603 12.8582 22.2071 14.6802 21.5533 16.3476C21.4408 16.6346 21.1169 16.776 20.83 16.6635C20.543 16.551 20.4016 16.2271 20.5141 15.9402C21.0887 14.4749 21.2233 12.8738 20.9015 11.3332C20.5797 9.79254 19.8155 8.37921 18.7025 7.2664L18.7025 7.26636C15.7377 4.30157 11.0416 4.11956 7.86684 6.72257C7.62849 6.918 7.27684 6.88321 7.08141 6.64485C6.88598 6.4065 6.92077 6.05485 7.15913 5.85941C10.7735 2.89594 16.1173 3.10271 19.4917 6.47706" fill="#7496B8"/>
<path d="M21.9941 11.105C21.628 9.35177 20.7583 7.74344 19.4917 6.47709L19.4917 6.47706C16.1173 3.10271 10.7735 2.89594 7.15913 5.85942C6.92077 6.05485 6.88598 6.4065 7.08141 6.64485C7.27684 6.88321 7.62849 6.918 7.86684 6.72257C11.0416 4.11956 15.7377 4.30157 18.7025 7.26636L18.7025 7.2664C19.8155 8.37921 20.5797 9.79254 20.9015 11.3332C21.2233 12.8738 21.0887 14.4749 20.5141 15.9402C20.4016 16.2271 20.543 16.551 20.83 16.6635C21.1169 16.776 21.4408 16.6346 21.5533 16.3476C22.2071 14.6802 22.3603 12.8582 21.9941 11.105Z" stroke="#7496B8" stroke-linecap="round" stroke-linejoin="round"/>
<path fill-rule="evenodd" clip-rule="evenodd" d="M24.9943 13.2014C25.2122 13.4194 25.2122 13.7727 24.9943 13.9907L22.3046 16.6804C22.2046 16.7804 22.0859 16.8597 21.9552 16.9138C21.8246 16.9679 21.6845 16.9958 21.5431 16.9958C21.4017 16.9958 21.2617 16.9679 21.1311 16.9138C21.0004 16.8597 20.8817 16.7804 20.7817 16.6804L18.092 13.9907C17.8741 13.7727 17.8741 13.4194 18.092 13.2014C18.31 12.9835 18.6633 12.9835 18.8813 13.2014L21.5431 15.8633L24.205 13.2014C24.423 12.9835 24.7763 12.9835 24.9943 13.2014ZM18.9183 19.3553C19.1137 19.5937 19.0788 19.9453 18.8404 20.1407C15.2255 23.1034 9.88231 22.8974 6.50728 19.5223C3.83849 16.8536 3.15246 12.9539 4.44565 9.652C4.55806 9.36499 4.88184 9.22345 5.16885 9.33586C5.45585 9.44826 5.59739 9.77205 5.48499 10.059C4.34766 12.963 4.95269 16.3892 7.29655 18.7331C10.2619 21.6984 14.9575 21.8799 18.1329 19.2774C18.3713 19.082 18.7229 19.1169 18.9183 19.3553Z" fill="#7496B8" stroke="#7496B8" stroke-linecap="round" stroke-linejoin="round"/>
<path fill-rule="evenodd" clip-rule="evenodd" d="M4.45703 9.00425C4.74262 9.00425 5.01651 9.1177 5.21845 9.31964L7.90816 12.0094C8.12611 12.2273 8.12611 12.5807 7.90816 12.7986C7.69021 13.0166 7.33684 13.0166 7.11889 12.7986L4.45703 10.1368L1.79517 12.7986C1.57722 13.0166 1.22385 13.0166 1.0059 12.7986C0.787948 12.5807 0.787948 12.2273 1.0059 12.0094L3.69562 9.31964C3.89755 9.1177 4.17144 9.00425 4.45703 9.00425Z" fill="#7496B8" stroke="#7496B8" stroke-linecap="round" stroke-linejoin="round"/>
</svg>
