<svg width="17" height="11" viewBox="0 0 17 11" fill="none" xmlns="http://www.w3.org/2000/svg">
<path d="M8.5 1.46667C9.92084 1.46218 11.3142 1.83831 12.5198 2.5518C13.7255 3.26529 14.6945 4.28718 15.3155 5.5C14.0405 7.97133 11.4364 9.53333 8.5 9.53333C5.56364 9.53333 2.95955 7.97133 1.68455 5.5C2.30552 4.28718 3.27453 3.26529 4.48018 2.5518C5.68582 1.83831 7.07916 1.46218 8.5 1.46667ZM8.5 0C4.63636 0 1.33682 2.28067 0 5.5C1.33682 8.71933 4.63636 11 8.5 11C12.3636 11 15.6632 8.71933 17 5.5C15.6632 2.28067 12.3636 0 8.5 0ZM8.5 3.66667C9.01235 3.66667 9.50372 3.85982 9.866 4.20364C10.2283 4.54745 10.4318 5.01377 10.4318 5.5C10.4318 5.98623 10.2283 6.45255 9.866 6.79636C9.50372 7.14018 9.01235 7.33333 8.5 7.33333C7.98765 7.33333 7.49628 7.14018 7.134 6.79636C6.77171 6.45255 6.56818 5.98623 6.56818 5.5C6.56818 5.01377 6.77171 4.54745 7.134 4.20364C7.49628 3.85982 7.98765 3.66667 8.5 3.66667ZM8.5 2.2C6.58364 2.2 5.02273 3.68133 5.02273 5.5C5.02273 7.31867 6.58364 8.8 8.5 8.8C10.4164 8.8 11.9773 7.31867 11.9773 5.5C11.9773 3.68133 10.4164 2.2 8.5 2.2Z" fill="#7496B8"/>
</svg>
