<svg width="13" height="16" viewBox="0 0 13 16" fill="none" xmlns="http://www.w3.org/2000/svg">
<path d="M12.1905 16H10.6667V14.4762C10.6667 13.87 10.4259 13.2886 9.9972 12.8599C9.56854 12.4313 8.98716 12.1905 8.38095 12.1905H3.80952C3.20331 12.1905 2.62193 12.4313 2.19328 12.8599C1.76463 13.2886 1.52381 13.87 1.52381 14.4762V16H0V14.4762C0 13.4658 0.401359 12.4969 1.11578 11.7825C1.83021 11.068 2.79918 10.6667 3.80952 10.6667H8.38095C9.3913 10.6667 10.3603 11.068 11.0747 11.7825C11.7891 12.4969 12.1905 13.4658 12.1905 14.4762V16ZM6.09524 9.14286C5.49491 9.14286 4.90046 9.02461 4.34583 8.79488C3.7912 8.56514 3.28725 8.22841 2.86275 7.80392C2.43825 7.37942 2.10152 6.87547 1.87179 6.32084C1.64205 5.76621 1.52381 5.17176 1.52381 4.57143C1.52381 3.9711 1.64205 3.37665 1.87179 2.82202C2.10152 2.26739 2.43825 1.76344 2.86275 1.33894C3.28725 0.914444 3.7912 0.577715 4.34583 0.347979C4.90046 0.118243 5.49491 -8.94559e-09 6.09524 0C7.30766 1.80664e-08 8.47042 0.481631 9.32773 1.33894C10.185 2.19625 10.6667 3.35901 10.6667 4.57143C10.6667 5.78385 10.185 6.94661 9.32773 7.80392C8.47042 8.66123 7.30766 9.14286 6.09524 9.14286ZM6.09524 7.61905C6.90352 7.61905 7.67869 7.29796 8.25023 6.72642C8.82177 6.15488 9.14286 5.37971 9.14286 4.57143C9.14286 3.76315 8.82177 2.98798 8.25023 2.41644C7.67869 1.8449 6.90352 1.52381 6.09524 1.52381C5.28696 1.52381 4.51179 1.8449 3.94025 2.41644C3.36871 2.98798 3.04762 3.76315 3.04762 4.57143C3.04762 5.37971 3.36871 6.15488 3.94025 6.72642C4.51179 7.29796 5.28696 7.61905 6.09524 7.61905Z" fill="#FA8B2E"/>
</svg>
