<svg width="17" height="20" viewBox="0 0 17 20" fill="none" xmlns="http://www.w3.org/2000/svg">
<path d="M15.8457 11.9189L10.5146 17.25C9.46594 18.2986 8.0437 18.8878 6.56071 18.8878C5.07773 18.8878 3.65549 18.2986 2.60686 17.25C1.55823 16.2014 0.969117 14.7791 0.969117 13.2962C0.969117 11.8132 1.55823 10.3909 2.60686 9.3423L9.19662 2.75255C9.8957 2.05346 10.8439 1.66072 11.8325 1.66072C12.8212 1.66072 13.7693 2.05346 14.4684 2.75255C15.1675 3.45163 15.5603 4.39979 15.5603 5.38845C15.5603 6.3771 15.1675 7.32527 14.4684 8.02435L8.41771 14.0751C8.24463 14.2481 8.03916 14.3854 7.81303 14.4791C7.58689 14.5728 7.34452 14.621 7.09976 14.621C6.85499 14.621 6.61262 14.5728 6.38649 14.4791C6.16035 14.3854 5.95488 14.2481 5.78181 14.0751C5.43226 13.7255 5.23589 13.2514 5.23589 12.7571C5.23589 12.2628 5.43226 11.7887 5.78181 11.4392L10.5146 6.7064" stroke="#FA8B2E" stroke-width="1.5" stroke-linecap="round" stroke-linejoin="round"/>
</svg>
