<svg width="26" height="26" viewBox="0 0 26 26" fill="none" xmlns="http://www.w3.org/2000/svg">
<path d="M13.6561 8.68848H12.6917L9.62833 15.7796H11.0466L11.5642 14.3614H14.7836L15.3012 15.7796H16.7195L13.6561 8.68848ZM11.9684 13.2977L13.1739 10.1067L14.3794 13.2977H11.9684Z" fill="white"/>
<path fill-rule="evenodd" clip-rule="evenodd" d="M19.4919 6.47709C20.7585 7.74344 21.6281 9.35177 21.9943 11.105C22.3605 12.8582 22.2073 14.6802 21.5534 16.3476C21.4409 16.6346 21.1171 16.776 20.8301 16.6635C20.5432 16.551 20.4017 16.2271 20.5143 15.9402C21.0888 14.4749 21.2234 12.8738 20.9017 11.3332C20.5799 9.79254 19.8157 8.37921 18.7027 7.2664L18.7026 7.26636C15.7378 4.30157 11.0417 4.11956 7.867 6.72257C7.62864 6.918 7.27699 6.88321 7.08156 6.64485C6.88613 6.4065 6.92093 6.05485 7.15928 5.85941C10.7736 2.89594 16.1175 3.10271 19.4919 6.47706" fill="white"/>
<path d="M21.9943 11.105C21.6281 9.35177 20.7585 7.74344 19.4919 6.47709L19.4919 6.47706C16.1175 3.10271 10.7736 2.89594 7.15928 5.85942C6.92093 6.05485 6.88613 6.4065 7.08156 6.64485C7.27699 6.88321 7.62864 6.918 7.867 6.72257C11.0417 4.11956 15.7378 4.30157 18.7026 7.26636L18.7027 7.2664C19.8157 8.37921 20.5799 9.79254 20.9017 11.3332C21.2234 12.8738 21.0888 14.4749 20.5143 15.9402C20.4017 16.2271 20.5432 16.551 20.8301 16.6635C21.1171 16.776 21.4409 16.6346 21.5534 16.3476C22.2073 14.6802 22.3605 12.8582 21.9943 11.105Z" stroke="white" stroke-linecap="round" stroke-linejoin="round"/>
<path fill-rule="evenodd" clip-rule="evenodd" d="M24.9945 13.2014C25.2125 13.4194 25.2125 13.7727 24.9945 13.9907L22.3048 16.6804C22.2048 16.7804 22.0861 16.8597 21.9555 16.9138C21.8248 16.9679 21.6848 16.9958 21.5434 16.9958C21.402 16.9958 21.2619 16.9679 21.1313 16.9138C21.0007 16.8597 20.882 16.7804 20.782 16.6804L18.0923 13.9907C17.8743 13.7727 17.8743 13.4194 18.0923 13.2014C18.3102 12.9835 18.6636 12.9835 18.8815 13.2014L21.5434 15.8633L24.2052 13.2014C24.4232 12.9835 24.7766 12.9835 24.9945 13.2014ZM18.9185 19.3553C19.1139 19.5937 19.0791 19.9453 18.8407 20.1407C15.2258 23.1034 9.88255 22.8974 6.50752 19.5223C3.83873 16.8536 3.1527 12.9539 4.4459 9.652C4.5583 9.36499 4.88209 9.22345 5.16909 9.33586C5.45609 9.44826 5.59763 9.77205 5.48523 10.059C4.3479 12.963 4.95293 16.3892 7.29679 18.7331C10.2622 21.6984 14.9577 21.8799 18.1331 19.2774C18.3715 19.082 18.7232 19.1169 18.9185 19.3553Z" fill="white" stroke="white" stroke-linecap="round" stroke-linejoin="round"/>
<path fill-rule="evenodd" clip-rule="evenodd" d="M4.45728 9.00425C4.74286 9.00425 5.01675 9.1177 5.21869 9.31964L7.90841 12.0094C8.12636 12.2273 8.12636 12.5807 7.90841 12.7986C7.69046 13.0166 7.33709 13.0166 7.11914 12.7986L4.45728 10.1368L1.79542 12.7986C1.57746 13.0166 1.2241 13.0166 1.00614 12.7986C0.788192 12.5807 0.788192 12.2273 1.00614 12.0094L3.69586 9.31964C3.8978 9.1177 4.17169 9.00425 4.45728 9.00425Z" fill="white" stroke="white" stroke-linecap="round" stroke-linejoin="round"/>
</svg>
