<svg width="50" height="26" viewBox="0 0 50 26" fill="none" xmlns="http://www.w3.org/2000/svg">
<g opacity="0.2">
<ellipse cx="37.1212" cy="13.5909" rx="10.0168" ry="10.0455" fill="white"/>
<path fill-rule="evenodd" clip-rule="evenodd" d="M37.1476 9.12936C36.6703 9.21414 36.2104 9.38128 35.7908 9.62472C35.1593 9.99101 34.6425 10.5163 34.2954 11.1445C33.9483 11.7728 33.7839 12.4804 33.8198 13.1919C33.8557 13.9035 34.0905 14.5922 34.4993 15.1847C34.908 15.7773 35.4752 16.2513 36.1406 16.5563C36.8059 16.8613 37.5443 16.9859 38.277 16.9166C39.0098 16.8474 39.7093 16.587 40.3011 16.1632C40.6464 15.9158 40.9475 15.6183 41.1945 15.2826C40.5812 15.3665 39.9518 15.3167 39.3537 15.1315C38.4319 14.8461 37.6427 14.2572 37.1231 13.467C36.6035 12.6769 36.3864 11.7356 36.5096 10.8066C36.5896 10.204 36.8095 9.63137 37.1476 9.12936ZM37.9376 8.27656C37.9188 8.274 37.8998 8.2727 37.8806 8.27271C36.9962 8.27291 36.1285 8.50541 35.37 8.9454C34.6115 9.3854 33.9907 10.0164 33.5737 10.7711C33.1567 11.5257 32.9593 12.3758 33.0024 13.2305C33.0455 14.0853 33.3276 14.9127 33.8186 15.6245C34.3096 16.3362 34.991 16.9057 35.7902 17.2721C36.5894 17.6385 37.4764 17.788 38.3566 17.7049C39.2367 17.6217 40.077 17.3089 40.7879 16.7998C41.4987 16.2907 42.0534 15.6045 42.3928 14.8142C42.4562 14.6668 42.4218 14.4969 42.3057 14.3835C42.1895 14.2701 42.0144 14.2352 41.8614 14.2952C41.1417 14.5772 40.3426 14.6062 39.6031 14.3772C38.8635 14.1482 38.2303 13.6757 37.8135 13.0418C37.3966 12.4079 37.2225 11.6527 37.3213 10.9075C37.4202 10.1623 37.7858 9.47412 38.3546 8.96267C38.4779 8.85185 38.5185 8.67931 38.457 8.52776C38.3955 8.37622 38.2444 8.27656 38.0761 8.27656H37.9376Z" fill="black"/>
<path d="M37.037 0H12.963C11.2606 -2.5439e-08 9.57499 0.336255 8.00225 0.989566C6.42951 1.64288 5.00049 2.60045 3.79676 3.80761C2.59304 5.01477 1.6382 6.44788 0.986747 8.02512C0.335297 9.60235 0 11.2928 0 13C0 14.7072 0.335297 16.3977 0.986747 17.9749C1.6382 19.5521 2.59304 20.9852 3.79676 22.1924C5.00049 23.3995 6.42951 24.3571 8.00225 25.0104C9.57499 25.6637 11.2606 26 12.963 26H37.037C38.7394 26 40.425 25.6637 41.9977 25.0104C43.5705 24.3571 44.9995 23.3995 46.2032 22.1924C47.407 20.9852 48.3618 19.5521 49.0133 17.9749C49.6647 16.3977 50 14.7072 50 13C50 11.2928 49.6647 9.60235 49.0133 8.02512C48.3618 6.44788 47.407 5.01477 46.2032 3.80761C44.9995 2.60045 43.5705 1.64288 41.9977 0.989566C40.425 0.336255 38.7394 -2.5439e-08 37.037 0ZM37.037 22.2857C34.5811 22.2855 32.2258 21.3068 30.4894 19.5651C28.7529 17.8233 27.7775 15.4611 27.7778 12.9981C27.778 10.5352 28.7539 8.17318 30.4907 6.43177C32.2275 4.69036 34.5829 3.71218 37.0389 3.71243C38.255 3.71255 39.4591 3.95288 40.5825 4.41969C41.706 4.8865 42.7268 5.57065 43.5866 6.43308C44.4464 7.29551 45.1284 8.31933 45.5936 9.44608C46.0589 10.5728 46.2983 11.7805 46.2981 13C46.298 14.2195 46.0584 15.4271 45.5929 16.5538C45.1274 17.6804 44.4452 18.7041 43.5852 19.5664C42.7253 20.4286 41.7044 21.1126 40.5808 21.5792C39.4573 22.0457 38.2531 22.2858 37.037 22.2857Z" fill="black"/>
</g>
</svg>
