<svg width="50" height="26" viewBox="0 0 50 26" fill="none" xmlns="http://www.w3.org/2000/svg">
<g opacity="0.2">
<ellipse cx="10.0168" cy="10.0455" rx="10.0168" ry="10.0455" transform="matrix(-1 0 0 1 22.8956 3.54541)" fill="black"/>
<path d="M12.963 0H37.037C38.7394 -2.5439e-08 40.425 0.336255 41.9977 0.989566C43.5705 1.64288 44.9995 2.60045 46.2032 3.80761C47.407 5.01477 48.3618 6.44788 49.0133 8.02512C49.6647 9.60235 50 11.2928 50 13C50 14.7072 49.6647 16.3977 49.0133 17.9749C48.3618 19.5521 47.407 20.9852 46.2032 22.1924C44.9995 23.3995 43.5705 24.3571 41.9977 25.0104C40.425 25.6637 38.7394 26 37.037 26H12.963C11.2606 26 9.57499 25.6637 8.00225 25.0104C6.42952 24.3571 5.00049 23.3995 3.79676 22.1924C2.59304 20.9852 1.6382 19.5521 0.986748 17.9749C0.335297 16.3977 0 14.7072 0 13C0 11.2928 0.335297 9.60235 0.986748 8.02512C1.6382 6.44788 2.59304 5.01477 3.79676 3.80761C5.00049 2.60045 6.42952 1.64288 8.00225 0.989566C9.57499 0.336255 11.2606 -2.5439e-08 12.963 0ZM12.963 22.2857C15.4189 22.2855 17.7742 21.3068 19.5106 19.5651C21.2471 17.8233 22.2225 15.4611 22.2222 12.9981C22.222 10.5352 21.2461 8.17318 19.5093 6.43177C17.7725 4.69036 15.4171 3.71218 12.9611 3.71243C11.745 3.71255 10.5409 3.95288 9.41747 4.41969C8.29401 4.8865 7.27324 5.57065 6.41344 6.43308C5.55364 7.29551 4.87164 8.31933 4.40639 9.44608C3.94114 10.5728 3.70173 11.7805 3.70185 13C3.70198 14.2195 3.94162 15.4271 4.4071 16.5538C4.87258 17.6804 5.55478 18.7041 6.41475 19.5664C7.27473 20.4286 8.29563 21.1126 9.41917 21.5792C10.5427 22.0457 11.7469 22.2858 12.963 22.2857Z" fill="#FA8B2E"/>
<path d="M12.963 10.1636C12.4036 10.1636 11.8567 10.33 11.3916 10.6416C10.9265 10.9533 10.564 11.3963 10.35 11.9145C10.1359 12.4328 10.0799 13.0031 10.189 13.5533C10.2981 14.1035 10.5675 14.6089 10.9631 15.0056C11.3586 15.4023 11.8625 15.6724 12.4112 15.7818C12.9598 15.8913 13.5285 15.8351 14.0453 15.6204C14.5621 15.4058 15.0038 15.0422 15.3146 14.5758C15.6254 14.1093 15.7912 13.561 15.7912 13C15.7902 12.248 15.4919 11.5272 14.9617 10.9955C14.4315 10.4638 13.7127 10.1647 12.963 10.1636ZM12.963 14.8909C12.59 14.8909 12.2255 14.78 11.9154 14.5722C11.6053 14.3644 11.3637 14.0691 11.221 13.7236C11.0782 13.3781 11.0409 12.9979 11.1137 12.6311C11.1864 12.2643 11.366 11.9274 11.6297 11.6629C11.8934 11.3985 12.2293 11.2184 12.5951 11.1454C12.9609 11.0724 13.34 11.1099 13.6845 11.253C14.029 11.3961 14.3235 11.6385 14.5307 11.9494C14.7379 12.2604 14.8485 12.626 14.8485 13C14.8485 13.5015 14.6498 13.9824 14.2962 14.3371C13.9426 14.6917 13.463 14.8909 12.963 14.8909ZM12.4916 9.06058V8.74543C12.4916 8.62006 12.5412 8.49982 12.6296 8.41116C12.718 8.32251 12.8379 8.27271 12.963 8.27271C13.088 8.27271 13.2079 8.32251 13.2963 8.41116C13.3847 8.49982 13.4343 8.62006 13.4343 8.74543V9.06058C13.4343 9.18596 13.3847 9.3062 13.2963 9.39485C13.2079 9.48351 13.088 9.53331 12.963 9.53331C12.8379 9.53331 12.718 9.48351 12.6296 9.39485C12.5412 9.3062 12.4916 9.18596 12.4916 9.06058ZM15.4063 10.5497C15.3623 10.5058 15.3275 10.4536 15.3037 10.3961C15.2799 10.3386 15.2676 10.277 15.2676 10.2148C15.2676 10.1526 15.2799 10.091 15.3037 10.0335C15.3275 9.97608 15.3623 9.9239 15.4063 9.87998L15.6302 9.65543C15.7187 9.56662 15.8388 9.51673 15.9641 9.51673C16.0893 9.51673 16.2094 9.56663 16.298 9.65543C16.3865 9.74424 16.4363 9.86469 16.4363 9.99028C16.4363 10.1159 16.3865 10.2363 16.298 10.3251L16.0741 10.5497C16.0302 10.5935 15.9781 10.6283 15.9208 10.6519C15.8635 10.6756 15.8021 10.6877 15.7402 10.6876C15.6152 10.687 15.4954 10.6375 15.4063 10.5497ZM17.6768 13C17.6768 13.1254 17.6271 13.2456 17.5387 13.3342C17.4503 13.4229 17.3304 13.4727 17.2054 13.4727H16.8911C16.7661 13.4727 16.6462 13.4229 16.5578 13.3342C16.4694 13.2456 16.4197 13.1254 16.4197 13C16.4197 12.8746 16.4694 12.7544 16.5578 12.6657C16.6462 12.5771 16.7661 12.5273 16.8911 12.5273H17.2054C17.3304 12.5273 17.4503 12.5771 17.5387 12.6657C17.6271 12.7544 17.6768 12.8746 17.6768 13ZM16.298 15.6748C16.3848 15.7645 16.4334 15.8846 16.4334 16.0097C16.4334 16.1347 16.3848 16.2548 16.298 16.3445C16.2084 16.4317 16.0889 16.481 15.9641 16.4824C15.9021 16.4826 15.8407 16.4705 15.7834 16.4468C15.7261 16.4231 15.6741 16.3884 15.6302 16.3445L15.4063 16.12C15.3177 16.0312 15.268 15.9107 15.268 15.7851C15.268 15.6595 15.3177 15.5391 15.4063 15.4503C15.4948 15.3615 15.6149 15.3116 15.7402 15.3116C15.8654 15.3116 15.9855 15.3615 16.0741 15.4503L16.298 15.6748ZM13.4343 16.9394V17.2545C13.4343 17.3799 13.3847 17.5001 13.2963 17.5888C13.2079 17.6774 13.088 17.7273 12.963 17.7273C12.8379 17.7273 12.718 17.6774 12.6296 17.5888C12.5412 17.5001 12.4916 17.3799 12.4916 17.2545V16.9394C12.4916 16.814 12.5412 16.6938 12.6296 16.6051C12.718 16.5164 12.8379 16.4666 12.963 16.4666C13.088 16.4666 13.2079 16.5164 13.2963 16.6051C13.3847 16.6938 13.4343 16.814 13.4343 16.9394ZM10.5196 15.4503C10.5636 15.4942 10.5984 15.5464 10.6222 15.6038C10.646 15.6613 10.6583 15.7229 10.6583 15.7851C10.6583 15.8473 10.646 15.909 10.6222 15.9664C10.5984 16.0239 10.5636 16.0761 10.5196 16.12L10.2957 16.3445C10.2518 16.3884 10.1998 16.4231 10.1425 16.4468C10.0852 16.4705 10.0238 16.4826 9.96183 16.4824C9.83703 16.481 9.71751 16.4317 9.62793 16.3445C9.54106 16.2548 9.49247 16.1347 9.49247 16.0097C9.49247 15.8846 9.54106 15.7645 9.62793 15.6748L9.85184 15.4503C9.89563 15.4062 9.94767 15.3712 10.005 15.3474C10.0623 15.3235 10.1237 15.3112 10.1857 15.3112C10.2478 15.3112 10.3092 15.3235 10.3665 15.3474C10.4238 15.3712 10.4758 15.4062 10.5196 15.4503ZM9.50616 13C9.50616 13.1254 9.4565 13.2456 9.3681 13.3342C9.2797 13.4229 9.1598 13.4727 9.03478 13.4727H8.72053C8.59551 13.4727 8.47561 13.4229 8.38721 13.3342C8.29881 13.2456 8.24915 13.1254 8.24915 13C8.24915 12.8746 8.29881 12.7544 8.38721 12.6657C8.47561 12.5771 8.59551 12.5273 8.72053 12.5273H9.03478C9.1598 12.5273 9.2797 12.5771 9.3681 12.6657C9.4565 12.7544 9.50616 12.8746 9.50616 13ZM9.62793 10.3251C9.53938 10.2363 9.48963 10.1159 9.48963 9.99028C9.48963 9.86469 9.53938 9.74424 9.62793 9.65543C9.71649 9.56662 9.83659 9.51673 9.96183 9.51673C10.0871 9.51673 10.2072 9.56662 10.2957 9.65543L10.5196 9.87998C10.5636 9.9239 10.5984 9.97608 10.6222 10.0335C10.646 10.091 10.6583 10.1526 10.6583 10.2148C10.6583 10.277 10.646 10.3386 10.6222 10.3961C10.5984 10.4536 10.5636 10.5058 10.5196 10.5497C10.4305 10.6375 10.3107 10.687 10.1857 10.6876C10.1238 10.6877 10.0624 10.6756 10.0051 10.6519C9.94781 10.6283 9.89573 10.5935 9.85184 10.5497L9.62793 10.3251Z" fill="#FA8B2E"/>
</g>
</svg>
