<svg width="17" height="18" viewBox="0 0 17 18" fill="none" xmlns="http://www.w3.org/2000/svg">
<path d="M16.83 11.115L15.93 12.015L14.085 10.215L14.985 9.315C15.165 9.126 15.471 9.117 15.678 9.315L16.83 10.467C17.001 10.647 17.001 10.935 16.83 11.115ZM8.1 16.146V18H9.954L15.408 12.492L13.563 10.692L8.1 16.146ZM1.8 16.2H6.3V18H1.8C1.32261 18 0.864773 17.8104 0.527208 17.4728C0.189642 17.1352 0 16.6774 0 16.2V3.6C0 2.61 0.81 1.8 1.8 1.8H2.7V0H4.5V1.8H11.7V0H13.5V1.8H14.4C14.8774 1.8 15.3352 1.98964 15.6728 2.32721C16.0104 2.66477 16.2 3.12261 16.2 3.6V7.2H1.8V16.2ZM1.8 3.6V5.4H14.4V3.6H1.8Z" fill="#7496B8"/>
</svg>
