<svg width="18" height="20" viewBox="0 0 18 20" fill="none" xmlns="http://www.w3.org/2000/svg">
<path fill-rule="evenodd" clip-rule="evenodd" d="M4.30352 15.6964C4.77236 16.1652 5.40825 16.4286 6.07129 16.4286H12.6478L17.857 11.2194V2.50002C17.857 1.83698 17.5936 1.20109 17.1248 0.732249C16.6559 0.263408 16.02 1.71661e-05 15.357 1.71661e-05H6.07129C5.40825 1.71661e-05 4.77236 0.263408 4.30352 0.732249C3.83468 1.20109 3.57129 1.83698 3.57129 2.50002V13.9286C3.57129 14.5916 3.83468 15.2275 4.30352 15.6964ZM6.07129 15C5.78713 15 5.51461 14.8871 5.31367 14.6862C5.11274 14.4853 4.99986 14.2127 4.99986 13.9286V2.50002C4.99986 2.21586 5.11274 1.94333 5.31367 1.7424C5.51461 1.54147 5.78713 1.42859 6.07129 1.42859H15.357C15.6412 1.42859 15.9137 1.54147 16.1146 1.7424C16.3156 1.94333 16.4284 2.21586 16.4284 2.50002V10H13.9284C13.2654 10 12.6295 10.2634 12.1607 10.7323C11.6918 11.2011 11.4284 11.837 11.4284 12.5V15H6.07129ZM12.857 14.2021V12.5C12.857 12.2159 12.9699 11.9433 13.1708 11.7424C13.3718 11.5415 13.6443 11.4286 13.9284 11.4286H15.6305L12.857 14.2021Z" fill="#7496B8"/>
<path fill-rule="evenodd" clip-rule="evenodd" d="M0 8.42859H1.42857V15.9286C1.42857 16.5916 1.69196 17.2275 2.1608 17.6964C2.62965 18.1652 3.26553 18.4286 3.92857 18.4286H12.8571V19.8572H3.92857C3.41266 19.8572 2.90181 19.7555 2.42517 19.5581C1.94854 19.3607 1.51545 19.0713 1.15065 18.7065C0.78585 18.3417 0.496474 17.9086 0.299045 17.432C0.101616 16.9554 0 16.4445 0 15.9286V8.42859Z" fill="#7496B8"/>
</svg>
