<svg width="89" height="89" viewBox="0 0 89 89" fill="none" xmlns="http://www.w3.org/2000/svg">
<path d="M40.05 66.75H48.95V48.95H66.75V40.05H48.95V22.25H40.05V40.05H22.25V48.95H40.05V66.75ZM44.5 89C38.3442 89 32.5592 87.8311 27.145 85.4934C21.7308 83.1557 17.0212 79.9858 13.0163 75.9837C9.01125 71.9788 5.84137 67.2692 3.5066 61.855C1.17183 56.4408 0.00296667 50.6558 0 44.5C0 38.3442 1.16887 32.5592 3.5066 27.145C5.84433 21.7308 9.01422 17.0212 13.0163 13.0163C17.0212 9.01125 21.7308 5.84137 27.145 3.5066C32.5592 1.17183 38.3442 0.00296667 44.5 0C50.6558 0 56.4408 1.16887 61.855 3.5066C67.2692 5.84433 71.9788 9.01422 75.9837 13.0163C79.9887 17.0212 83.1601 21.7308 85.4978 27.145C87.8356 32.5592 89.003 38.3442 89 44.5C89 50.6558 87.8311 56.4408 85.4934 61.855C83.1557 67.2692 79.9858 71.9788 75.9837 75.9837C71.9788 79.9887 67.2692 83.1601 61.855 85.4978C56.4408 87.8356 50.6558 89.003 44.5 89ZM44.5 80.1C54.4383 80.1 62.8562 76.6512 69.7537 69.7537C76.6512 62.8562 80.1 54.4383 80.1 44.5C80.1 34.5617 76.6512 26.1437 69.7537 19.2462C62.8562 12.3487 54.4383 8.9 44.5 8.9C34.5617 8.9 26.1437 12.3487 19.2462 19.2462C12.3487 26.1437 8.9 34.5617 8.9 44.5C8.9 54.4383 12.3487 62.8562 19.2462 69.7537C26.1437 76.6512 34.5617 80.1 44.5 80.1Z" fill="#FFE4CE"/>
</svg>
