<svg width="38" height="28" viewBox="0 0 38 28" fill="none" xmlns="http://www.w3.org/2000/svg">
<path d="M37.4395 1.23047C36.9004 1.32422 36.4551 1.42969 36.1035 1.54688C35.7754 1.66406 35.4941 1.81641 35.2598 2.00391C35.0254 2.19141 34.8262 2.44922 34.6621 2.77734C34.498 3.10547 34.3223 3.52734 34.1348 4.04297C33.4082 6.01172 32.7754 7.71094 32.2363 9.14062C31.7207 10.5703 31.252 11.8711 30.8301 13.043C30.4082 14.1914 30.0215 15.2578 29.6699 16.2422C29.3418 17.2266 28.9902 18.2578 28.6152 19.3359C28.2402 20.4141 27.8418 21.6094 27.4199 22.9219C26.998 24.2109 26.5059 25.7227 25.9434 27.457H25.3457L18.9473 10.4766L12.7246 27.457H12.127L4.39258 5.90625C4.01758 4.94531 3.68945 4.17188 3.4082 3.58594C3.12695 3 2.83398 2.54297 2.5293 2.21484C2.24805 1.86328 1.91992 1.62891 1.54492 1.51172C1.19336 1.37109 0.759766 1.27734 0.244141 1.23047V0.421875H10.0879V1.23047C9.08008 1.27734 8.38867 1.39453 8.01367 1.58203C7.63867 1.74609 7.45117 2.03906 7.45117 2.46094C7.45117 2.69531 7.48633 2.96484 7.55664 3.26953C7.65039 3.57422 7.76758 3.92578 7.9082 4.32422L13.709 19.4414L17.998 8.08594L16.6621 4.81641C16.3105 4.01953 16.0059 3.38672 15.748 2.91797C15.5137 2.42578 15.2559 2.0625 14.9746 1.82812C14.6934 1.57031 14.3652 1.40625 13.9902 1.33594C13.6387 1.26562 13.1816 1.23047 12.6191 1.23047V0.421875H23.3066V1.23047C22.252 1.23047 21.4785 1.34766 20.9863 1.58203C20.5176 1.81641 20.2832 2.15625 20.2832 2.60156C20.2832 2.8125 20.3301 3.09375 20.4238 3.44531C20.5176 3.79688 20.6582 4.19531 20.8457 4.64062L21.3379 5.87109L26.6465 19.5469L31.6387 5.97656C32.084 4.75781 32.3066 3.73828 32.3066 2.91797C32.3066 2.37891 32.0957 1.99219 31.6738 1.75781C31.2754 1.5 30.5605 1.32422 29.5293 1.23047V0.421875H37.4395V1.23047Z" fill="#FA8B2E"/>
</svg>
