<svg width="16" height="18" viewBox="0 0 16 18" fill="none" xmlns="http://www.w3.org/2000/svg">
<path d="M5.4 14.4C4.905 14.4 4.4814 14.2239 4.1292 13.8717C3.7764 13.5189 3.6 13.095 3.6 12.6V1.8C3.6 1.305 3.7764 0.8811 4.1292 0.5283C4.4814 0.1761 4.905 0 5.4 0H13.5C13.995 0 14.4189 0.1761 14.7717 0.5283C15.1239 0.8811 15.3 1.305 15.3 1.8V12.6C15.3 13.095 15.1239 13.5189 14.7717 13.8717C14.4189 14.2239 13.995 14.4 13.5 14.4H5.4ZM5.4 12.6H13.5V1.8H5.4V12.6ZM1.8 18C1.305 18 0.8811 17.8239 0.5283 17.4717C0.1761 17.1189 0 16.695 0 16.2V4.5C0 4.245 0.0864001 4.0311 0.2592 3.8583C0.4314 3.6861 0.645 3.6 0.9 3.6C1.155 3.6 1.3689 3.6861 1.5417 3.8583C1.7139 4.0311 1.8 4.245 1.8 4.5V16.2H10.8C11.055 16.2 11.2689 16.2864 11.4417 16.4592C11.6139 16.6314 11.7 16.845 11.7 17.1C11.7 17.355 11.6139 17.5686 11.4417 17.7408C11.2689 17.9136 11.055 18 10.8 18H1.8Z" fill="#7496B8"/>
</svg>
