<svg width="22" height="22" viewBox="0 0 22 22" fill="none" xmlns="http://www.w3.org/2000/svg">
<path d="M11 4.4C9.69464 4.4 8.4186 4.78708 7.33324 5.5123C6.24787 6.23752 5.40193 7.2683 4.9024 8.47429C4.40286 9.68028 4.27215 11.0073 4.52682 12.2876C4.78148 13.5679 5.41007 14.7439 6.3331 15.6669C7.25612 16.5899 8.43213 17.2185 9.7124 17.4732C10.9927 17.7278 12.3197 17.5971 13.5257 17.0976C14.7317 16.5981 15.7625 15.7521 16.4877 14.6668C17.2129 13.5814 17.6 12.3054 17.6 11C17.5976 9.25032 16.9014 7.57299 15.6642 6.33577C14.427 5.09856 12.7497 4.40243 11 4.4ZM11 15.4C10.1298 15.4 9.27907 15.1419 8.55549 14.6585C7.83191 14.175 7.26796 13.4878 6.93493 12.6838C6.6019 11.8798 6.51477 10.9951 6.68455 10.1416C6.85432 9.28809 7.27338 8.50408 7.88873 7.88873C8.50408 7.27338 9.28809 6.85432 10.1416 6.68455C10.9951 6.51477 11.8798 6.6019 12.6838 6.93493C13.4878 7.26796 14.175 7.83191 14.6585 8.55549C15.1419 9.27907 15.4 10.1298 15.4 11C15.4 12.167 14.9364 13.2861 14.1113 14.1113C13.2861 14.9364 12.167 15.4 11 15.4ZM9.9 1.83333V1.1C9.9 0.808262 10.0159 0.528473 10.2222 0.322183C10.4285 0.115893 10.7083 0 11 0C11.2917 0 11.5715 0.115893 11.7778 0.322183C11.9841 0.528473 12.1 0.808262 12.1 1.1V1.83333C12.1 2.12507 11.9841 2.40486 11.7778 2.61115C11.5715 2.81744 11.2917 2.93333 11 2.93333C10.7083 2.93333 10.4285 2.81744 10.2222 2.61115C10.0159 2.40486 9.9 2.12507 9.9 1.83333ZM16.7017 5.29833C16.5991 5.19614 16.5177 5.07471 16.4622 4.941C16.4067 4.80729 16.3781 4.66394 16.3781 4.51917C16.3781 4.37439 16.4067 4.23104 16.4622 4.09733C16.5177 3.96363 16.5991 3.84219 16.7017 3.74L17.2242 3.2175C17.4308 3.01085 17.7111 2.89476 18.0033 2.89476C18.2956 2.89476 18.5759 3.01085 18.7825 3.2175C18.9891 3.42415 19.1052 3.70442 19.1052 3.99667C19.1052 4.28891 18.9891 4.56919 18.7825 4.77583L18.26 5.29833C18.1576 5.4004 18.0361 5.48126 17.9024 5.53632C17.7687 5.59137 17.6254 5.61952 17.4808 5.61917C17.1892 5.6179 16.9096 5.50278 16.7017 5.29833ZM22 11C22 11.2917 21.8841 11.5715 21.6778 11.7778C21.4715 11.9841 21.1917 12.1 20.9 12.1H20.1667C19.8749 12.1 19.5951 11.9841 19.3888 11.7778C19.1826 11.5715 19.0667 11.2917 19.0667 11C19.0667 10.7083 19.1826 10.4285 19.3888 10.2222C19.5951 10.0159 19.8749 9.9 20.1667 9.9H20.9C21.1917 9.9 21.4715 10.0159 21.6778 10.2222C21.8841 10.4285 22 10.7083 22 11ZM18.7825 17.2242C18.9852 17.4329 19.0986 17.7124 19.0986 18.0033C19.0986 18.2943 18.9852 18.5738 18.7825 18.7825C18.5735 18.9853 18.2946 19.1002 18.0033 19.1033C17.8587 19.1037 17.7155 19.0755 17.5818 19.0205C17.4481 18.9654 17.3266 18.8846 17.2242 18.7825L16.7017 18.26C16.495 18.0534 16.3789 17.7731 16.3789 17.4808C16.3789 17.1886 16.495 16.9083 16.7017 16.7017C16.9083 16.495 17.1886 16.3789 17.4808 16.3789C17.7731 16.3789 18.0534 16.495 18.26 16.7017L18.7825 17.2242ZM12.1 20.1667V20.9C12.1 21.1917 11.9841 21.4715 11.7778 21.6778C11.5715 21.8841 11.2917 22 11 22C10.7083 22 10.4285 21.8841 10.2222 21.6778C10.0159 21.4715 9.9 21.1917 9.9 20.9V20.1667C9.9 19.8749 10.0159 19.5951 10.2222 19.3888C10.4285 19.1826 10.7083 19.0667 11 19.0667C11.2917 19.0667 11.5715 19.1826 11.7778 19.3888C11.9841 19.5951 12.1 19.8749 12.1 20.1667ZM5.29833 16.7017C5.40088 16.8039 5.48225 16.9253 5.53777 17.059C5.59329 17.1927 5.62187 17.3361 5.62187 17.4808C5.62187 17.6256 5.59329 17.769 5.53777 17.9027C5.48225 18.0364 5.40088 18.1578 5.29833 18.26L4.77583 18.7825C4.67342 18.8846 4.55189 18.9654 4.41819 19.0205C4.28449 19.0755 4.14125 19.1037 3.99667 19.1033C3.70543 19.1002 3.42653 18.9853 3.2175 18.7825C3.01479 18.5738 2.90139 18.2943 2.90139 18.0033C2.90139 17.7124 3.01479 17.4329 3.2175 17.2242L3.74 16.7017C3.84219 16.5991 3.96363 16.5177 4.09733 16.4622C4.23104 16.4067 4.37439 16.3781 4.51917 16.3781C4.66394 16.3781 4.80729 16.4067 4.941 16.4622C5.07471 16.5177 5.19614 16.5991 5.29833 16.7017ZM2.93333 11C2.93333 11.2917 2.81744 11.5715 2.61115 11.7778C2.40486 11.9841 2.12507 12.1 1.83333 12.1H1.1C0.808262 12.1 0.528473 11.9841 0.322183 11.7778C0.115893 11.5715 0 11.2917 0 11C0 10.7083 0.115893 10.4285 0.322183 10.2222C0.528473 10.0159 0.808262 9.9 1.1 9.9H1.83333C2.12507 9.9 2.40486 10.0159 2.61115 10.2222C2.81744 10.4285 2.93333 10.7083 2.93333 11ZM3.2175 4.77583C3.01085 4.56919 2.89476 4.28891 2.89476 3.99667C2.89476 3.70442 3.01085 3.42415 3.2175 3.2175C3.42415 3.01085 3.70442 2.89476 3.99667 2.89476C4.28891 2.89476 4.56919 3.01085 4.77583 3.2175L5.29833 3.74C5.40088 3.84219 5.48225 3.96363 5.53777 4.09733C5.59329 4.23104 5.62187 4.37439 5.62187 4.51917C5.62187 4.66394 5.59329 4.80729 5.53777 4.941C5.48225 5.07471 5.40088 5.19614 5.29833 5.29833C5.09038 5.50278 4.81079 5.6179 4.51917 5.61917C4.37458 5.61952 4.23134 5.59137 4.09764 5.53632C3.96395 5.48126 3.84242 5.4004 3.74 5.29833L3.2175 4.77583Z" fill="#FA8B2E"/>
</svg>
