<svg width="19" height="18" viewBox="0 0 19 18" fill="none" xmlns="http://www.w3.org/2000/svg">
<path d="M18.7269 16.4418C17.5132 14.3491 15.6289 12.727 13.379 11.8381C14.4833 11.0099 15.299 9.85522 15.7105 8.53767C16.1221 7.22012 16.1087 5.80648 15.6722 4.49697C15.2357 3.18747 14.3982 2.0485 13.2784 1.24141C12.1587 0.434309 10.8133 0 9.43297 0C8.05263 0 6.70728 0.434309 5.5875 1.24141C4.46771 2.0485 3.63025 3.18747 3.19375 4.49697C2.75725 5.80648 2.74384 7.22012 3.15541 8.53767C3.56698 9.85522 4.38267 11.0099 5.48694 11.8381C3.23699 12.727 1.35275 14.3491 0.139037 16.4418C0.0013324 16.6805 -0.0359137 16.9641 0.0354921 17.2302C0.106898 17.4964 0.281106 17.7233 0.519794 17.861C0.758481 17.9987 1.04209 18.0359 1.30824 17.9645C1.57439 17.8931 1.80127 17.7189 1.93898 17.4802C2.69852 16.1648 3.79091 15.0725 5.10637 14.3131C6.42184 13.5536 7.91402 13.1538 9.43297 13.1538C10.9519 13.1538 12.4441 13.5536 13.7596 14.3131C15.075 15.0725 16.1674 16.1648 16.927 17.4802C17.0188 17.6376 17.1502 17.7683 17.308 17.8593C17.4658 17.9504 17.6447 17.9987 17.8269 17.9994C18.0093 18.0009 18.1887 17.953 18.3461 17.861C18.4644 17.7928 18.568 17.7021 18.6512 17.5939C18.7343 17.4856 18.7953 17.3621 18.8307 17.2303C18.866 17.0985 18.8751 16.961 18.8573 16.8257C18.8395 16.6904 18.7952 16.5599 18.7269 16.4418ZM4.93311 6.57671C4.93311 5.68672 5.19703 4.81672 5.69148 4.07673C6.18593 3.33673 6.88871 2.75997 7.71095 2.41939C8.53319 2.0788 9.43796 1.98969 10.3108 2.16332C11.1837 2.33695 11.9855 2.76552 12.6148 3.39483C13.2442 4.02415 13.6727 4.82595 13.8464 5.69883C14.02 6.57172 13.9309 7.47649 13.5903 8.29873C13.2497 9.12097 12.673 9.82375 11.933 10.3182C11.193 10.8127 10.323 11.0766 9.43297 11.0766C8.23953 11.0766 7.09498 10.6025 6.25109 9.75859C5.4072 8.9147 4.93311 7.77015 4.93311 6.57671Z" fill="#7496B8"/>
</svg>
