<svg width="16" height="16" viewBox="0 0 16 16" fill="none" xmlns="http://www.w3.org/2000/svg">
<path d="M8 16C6.90667 16 5.87333 15.7899 4.9 15.3696C3.92667 14.9499 3.0768 14.3765 2.3504 13.6496C1.62347 12.9232 1.05013 12.0733 0.6304 11.1C0.210133 10.1267 0 9.09333 0 8C0 6.89333 0.210133 5.8568 0.6304 4.8904C1.05013 3.92347 1.62347 3.0768 2.3504 2.3504C3.0768 1.62347 3.92667 1.04987 4.9 0.6296C5.87333 0.209867 6.90667 0 8 0C9.10667 0 10.1432 0.209867 11.1096 0.6296C12.0765 1.04987 12.9232 1.62347 13.6496 2.3504C14.3765 3.0768 14.9499 3.92347 15.3696 4.8904C15.7899 5.8568 16 6.89333 16 8V9.16C16 9.94667 15.7301 10.6165 15.1904 11.1696C14.6501 11.7232 13.9867 12 13.2 12C12.72 12 12.2733 11.8933 11.86 11.68C11.4467 11.4667 11.1067 11.1867 10.84 10.84C10.48 11.2 10.0568 11.4835 9.5704 11.6904C9.08347 11.8968 8.56 12 8 12C6.89333 12 5.95013 11.6099 5.1704 10.8296C4.39013 10.0499 4 9.10667 4 8C4 6.89333 4.39013 5.94987 5.1704 5.1696C5.95013 4.38987 6.89333 4 8 4C9.10667 4 10.0501 4.38987 10.8304 5.1696C11.6101 5.94987 12 6.89333 12 8V9.16C12 9.54667 12.12 9.84987 12.36 10.0696C12.6 10.2899 12.88 10.4 13.2 10.4C13.52 10.4 13.8 10.2899 14.04 10.0696C14.28 9.84987 14.4 9.54667 14.4 9.16V8C14.4 6.25333 13.7699 4.74987 12.5096 3.4896C11.2499 2.22987 9.74667 1.6 8 1.6C6.25333 1.6 4.74987 2.22987 3.4896 3.4896C2.22987 4.74987 1.6 6.25333 1.6 8C1.6 9.74667 2.22987 11.2499 3.4896 12.5096C4.74987 13.7699 6.25333 14.4 8 14.4H11.2C11.4267 14.4 11.6165 14.4768 11.7696 14.6304C11.9232 14.7835 12 14.9733 12 15.2C12 15.4267 11.9232 15.6165 11.7696 15.7696C11.6165 15.9232 11.4267 16 11.2 16H8ZM8 10.4C8.66667 10.4 9.23333 10.1667 9.7 9.7C10.1667 9.23333 10.4 8.66667 10.4 8C10.4 7.33333 10.1667 6.76667 9.7 6.3C9.23333 5.83333 8.66667 5.6 8 5.6C7.33333 5.6 6.76667 5.83333 6.3 6.3C5.83333 6.76667 5.6 7.33333 5.6 8C5.6 8.66667 5.83333 9.23333 6.3 9.7C6.76667 10.1667 7.33333 10.4 8 10.4Z" fill="#FA8B2E"/>
</svg>
